<mxfile host="app.diagrams.net" modified="2023-04-03T11:51:56.725Z" agent="Mozilla/5.0 (Windows NT 10.0; Win64; x64) AppleWebKit/537.36 (KHTML, like Gecko) Chrome/111.0.0.0 Safari/537.36" etag="dI7Krysi6OhhGgrfHwQo" version="21.1.2" type="github">
  <diagram id="UTy2Lzr98Qr31nQWpXDA" name="第 1 页">
    <mxGraphModel dx="1192" dy="970" grid="1" gridSize="10" guides="1" tooltips="1" connect="1" arrows="1" fold="1" page="1" pageScale="1" pageWidth="827" pageHeight="1169" math="0" shadow="0">
      <root>
        <mxCell id="0" />
        <mxCell id="1" parent="0" />
        <mxCell id="saS9OErzC9aHQ2--yEwm-10" value="" style="verticalLabelPosition=bottom;verticalAlign=top;html=1;shape=mxgraph.basic.rect;fillColor2=none;strokeWidth=1;size=0;indent=0;" vertex="1" parent="1">
          <mxGeometry x="10" y="480" width="790" height="60" as="geometry" />
        </mxCell>
        <mxCell id="saS9OErzC9aHQ2--yEwm-11" value="&lt;font style=&quot;font-size: 18px;&quot;&gt;变长字段长度列表&lt;/font&gt;" style="whiteSpace=wrap;html=1;" vertex="1" parent="1">
          <mxGeometry x="10" y="480" width="160" height="60" as="geometry" />
        </mxCell>
        <mxCell id="saS9OErzC9aHQ2--yEwm-12" value="&lt;font style=&quot;font-size: 18px;&quot;&gt;NULL值列表&lt;/font&gt;" style="whiteSpace=wrap;html=1;" vertex="1" parent="1">
          <mxGeometry x="170" y="480" width="150" height="60" as="geometry" />
        </mxCell>
        <mxCell id="saS9OErzC9aHQ2--yEwm-13" value="&lt;font style=&quot;font-size: 18px;&quot;&gt;记录头信息&lt;/font&gt;" style="whiteSpace=wrap;html=1;" vertex="1" parent="1">
          <mxGeometry x="320" y="480" width="120" height="60" as="geometry" />
        </mxCell>
        <mxCell id="saS9OErzC9aHQ2--yEwm-14" value="&lt;font style=&quot;font-size: 18px;&quot;&gt;列1的值&lt;/font&gt;" style="whiteSpace=wrap;html=1;" vertex="1" parent="1">
          <mxGeometry x="440" y="480" width="120" height="60" as="geometry" />
        </mxCell>
        <mxCell id="saS9OErzC9aHQ2--yEwm-15" value="&lt;br&gt;........" style="whiteSpace=wrap;html=1;" vertex="1" parent="1">
          <mxGeometry x="560" y="480" width="120" height="60" as="geometry" />
        </mxCell>
        <mxCell id="saS9OErzC9aHQ2--yEwm-16" value="&lt;font style=&quot;font-size: 18px;&quot;&gt;列n的值&lt;/font&gt;" style="whiteSpace=wrap;html=1;" vertex="1" parent="1">
          <mxGeometry x="680" y="480" width="120" height="60" as="geometry" />
        </mxCell>
      </root>
    </mxGraphModel>
  </diagram>
</mxfile>
